<svg xmlns="http://www.w3.org/2000/svg" xmlns:xlink="http://www.w3.org/1999/xlink" width="0" height="0" style="display:none;"><symbol viewBox="0 0 24 24" id="play-fill"><path d="M19.376 12.4158L8.77735 19.4816C8.54759 19.6348 8.23715 19.5727 8.08397 19.3429C8.02922 19.2608 8 19.1643 8 19.0656V4.93408C8 4.65794 8.22386 4.43408 8.5 4.43408C8.59871 4.43408 8.69522 4.4633 8.77735 4.51806L19.376 11.5838C19.6057 11.737 19.6678 12.0474 19.5146 12.2772C19.478 12.3321 19.4309 12.3792 19.376 12.4158Z"></path></symbol><symbol viewBox="0 0 24 24" id="pause-fill"><path d="M6 5H8V19H6V5ZM16 5H18V19H16V5Z"></path></symbol><symbol viewBox="0 0 24 24" id="rewind-fill"><path d="M12.001 10.6665L21.2237 4.51811C21.4534 4.36493 21.7639 4.42702 21.917 4.65679C21.9718 4.73892 22.001 4.83542 22.001 4.93414V19.0656C22.001 19.3418 21.7772 19.5656 21.501 19.5656C21.4023 19.5656 21.3058 19.5364 21.2237 19.4816L12.001 13.3332V19.0656C12.001 19.3418 11.7772 19.5656 11.501 19.5656C11.4023 19.5656 11.3058 19.5364 11.2237 19.4816L0.625047 12.4159C0.395282 12.2627 0.333196 11.9523 0.486372 11.7225C0.522989 11.6676 0.570121 11.6205 0.625047 11.5839L11.2237 4.51811C11.4534 4.36493 11.7639 4.42702 11.917 4.65679C11.9718 4.73892 12.001 4.83542 12.001 4.93414V10.6665Z"></path></symbol><symbol viewBox="0 0 24 24" id="speed-fill"><path d="M12 13.3332L2.77735 19.4816C2.54759 19.6348 2.23715 19.5727 2.08397 19.3429C2.02922 19.2608 2 19.1643 2 19.0656V4.93408C2 4.65794 2.22386 4.43408 2.5 4.43408C2.59871 4.43408 2.69522 4.4633 2.77735 4.51806L12 10.6665V4.93408C12 4.65794 12.2239 4.43408 12.5 4.43408C12.5987 4.43408 12.6952 4.4633 12.7774 4.51806L23.376 11.5838C23.6057 11.737 23.6678 12.0474 23.5146 12.2772C23.478 12.3321 23.4309 12.3792 23.376 12.4158L12.7774 19.4816C12.5476 19.6348 12.2372 19.5727 12.084 19.3429C12.0292 19.2608 12 19.1643 12 19.0656V13.3332Z"></path></symbol><symbol viewBox="0 0 24 24" id="repeat-line"><path d="M6 4H21C21.5523 4 22 4.44772 22 5V12H20V6H6V9L1 5L6 1V4ZM18 20H3C2.44772 20 2 19.5523 2 19V12H4V18H18V15L23 19L18 23V20Z"></path></symbol><symbol viewBox="0 0 24 24" id="repeat-one-line"><path d="M8 19.9999V21.9323C8 22.2085 7.77614 22.4323 7.5 22.4323C7.38303 22.4323 7.26977 22.3913 7.17991 22.3165L3.06093 18.884C2.84879 18.7072 2.82013 18.3919 2.99691 18.1798C3.09191 18.0658 3.23264 17.9999 3.38103 17.9999L18 17.9999C19.1046 17.9999 20 17.1044 20 15.9999V7.99987H22V15.9999C22 18.209 20.2091 19.9999 18 19.9999H8ZM16 2.06738C16 1.79124 16.2239 1.56738 16.5 1.56738C16.617 1.56738 16.7302 1.60839 16.8201 1.68327L20.9391 5.11575C21.1512 5.29253 21.1799 5.60782 21.0031 5.81995C20.9081 5.93395 20.7674 5.99986 20.619 5.99986L6 5.99987C4.89543 5.99987 4 6.89531 4 7.99987V15.9999H2V7.99987C2 5.79074 3.79086 3.99987 6 3.99987H16V2.06738ZM11 7.99987H13V15.9999H11V9.99987H9V8.99987L11 7.99987Z"></path></symbol><symbol viewBox="0 0 24 24" id="volume-up-line"><path d="M6.60282 10.0001L10 7.22056V16.7796L6.60282 14.0001H3V10.0001H6.60282ZM2 16.0001H5.88889L11.1834 20.3319C11.2727 20.405 11.3846 20.4449 11.5 20.4449C11.7761 20.4449 12 20.2211 12 19.9449V4.05519C12 3.93977 11.9601 3.8279 11.887 3.73857C11.7121 3.52485 11.3971 3.49335 11.1834 3.66821L5.88889 8.00007H2C1.44772 8.00007 1 8.44778 1 9.00007V15.0001C1 15.5524 1.44772 16.0001 2 16.0001ZM23 12C23 15.292 21.5539 18.2463 19.2622 20.2622L17.8445 18.8444C19.7758 17.1937 21 14.7398 21 12C21 9.26016 19.7758 6.80629 17.8445 5.15557L19.2622 3.73779C21.5539 5.75368 23 8.70795 23 12ZM18 12C18 10.0883 17.106 8.38548 15.7133 7.28673L14.2842 8.71584C15.3213 9.43855 16 10.64 16 12C16 13.36 15.3213 14.5614 14.2842 15.2841L15.7133 16.7132C17.106 15.6145 18 13.9116 18 12Z"></path></symbol><symbol viewBox="0 0 24 24" id="volume-mute-line"><path d="M10 7.22056L6.60282 10.0001H3V14.0001H6.60282L10 16.7796V7.22056ZM5.88889 16.0001H2C1.44772 16.0001 1 15.5524 1 15.0001V9.00007C1 8.44778 1.44772 8.00007 2 8.00007H5.88889L11.1834 3.66821C11.3971 3.49335 11.7121 3.52485 11.887 3.73857C11.9601 3.8279 12 3.93977 12 4.05519V19.9449C12 20.2211 11.7761 20.4449 11.5 20.4449C11.3846 20.4449 11.2727 20.405 11.1834 20.3319L5.88889 16.0001ZM20.4142 12.0001L23.9497 15.5356L22.5355 16.9498L19 13.4143L15.4645 16.9498L14.0503 15.5356L17.5858 12.0001L14.0503 8.46454L15.4645 7.05032L19 10.5859L22.5355 7.05032L23.9497 8.46454L20.4142 12.0001Z"></path></symbol></svg>