<svg xmlns="http://www.w3.org/2000/svg" xmlns:xlink="http://www.w3.org/1999/xlink" width="0" height="0" style="display:none;"><symbol viewBox="0 0 24 24" id="share-line"><path d="M13.1202 17.0228L8.92129 14.7324C8.19135 15.5125 7.15261 16 6 16C3.79086 16 2 14.2091 2 12C2 9.79086 3.79086 8 6 8C7.15255 8 8.19125 8.48746 8.92118 9.26746L13.1202 6.97713C13.0417 6.66441 13 6.33707 13 6C13 3.79086 14.7909 2 17 2C19.2091 2 21 3.79086 21 6C21 8.20914 19.2091 10 17 10C15.8474 10 14.8087 9.51251 14.0787 8.73246L9.87977 11.0228C9.9583 11.3355 10 11.6629 10 12C10 12.3371 9.95831 12.6644 9.87981 12.9771L14.0788 15.2675C14.8087 14.4875 15.8474 14 17 14C19.2091 14 21 15.7909 21 18C21 20.2091 19.2091 22 17 22C14.7909 22 13 20.2091 13 18C13 17.6629 13.0417 17.3355 13.1202 17.0228ZM6 14C7.10457 14 8 13.1046 8 12C8 10.8954 7.10457 10 6 10C4.89543 10 4 10.8954 4 12C4 13.1046 4.89543 14 6 14ZM17 8C18.1046 8 19 7.10457 19 6C19 4.89543 18.1046 4 17 4C15.8954 4 15 4.89543 15 6C15 7.10457 15.8954 8 17 8ZM17 20C18.1046 20 19 19.1046 19 18C19 16.8954 18.1046 16 17 16C15.8954 16 15 16.8954 15 18C15 19.1046 15.8954 20 17 20Z"></path></symbol><symbol viewBox="0 0 24 24" id="play-fill"><path d="M19.376 12.4158L8.77735 19.4816C8.54759 19.6348 8.23715 19.5727 8.08397 19.3429C8.02922 19.2608 8 19.1643 8 19.0656V4.93408C8 4.65794 8.22386 4.43408 8.5 4.43408C8.59871 4.43408 8.69522 4.4633 8.77735 4.51806L19.376 11.5838C19.6057 11.737 19.6678 12.0474 19.5146 12.2772C19.478 12.3321 19.4309 12.3792 19.376 12.4158Z"></path></symbol><symbol viewBox="0 0 24 24" id="volume-up-line"><path d="M6.60282 10.0001L10 7.22056V16.7796L6.60282 14.0001H3V10.0001H6.60282ZM2 16.0001H5.88889L11.1834 20.3319C11.2727 20.405 11.3846 20.4449 11.5 20.4449C11.7761 20.4449 12 20.2211 12 19.9449V4.05519C12 3.93977 11.9601 3.8279 11.887 3.73857C11.7121 3.52485 11.3971 3.49335 11.1834 3.66821L5.88889 8.00007H2C1.44772 8.00007 1 8.44778 1 9.00007V15.0001C1 15.5524 1.44772 16.0001 2 16.0001ZM23 12C23 15.292 21.5539 18.2463 19.2622 20.2622L17.8445 18.8444C19.7758 17.1937 21 14.7398 21 12C21 9.26016 19.7758 6.80629 17.8445 5.15557L19.2622 3.73779C21.5539 5.75368 23 8.70795 23 12ZM18 12C18 10.0883 17.106 8.38548 15.7133 7.28673L14.2842 8.71584C15.3213 9.43855 16 10.64 16 12C16 13.36 15.3213 14.5614 14.2842 15.2841L15.7133 16.7132C17.106 15.6145 18 13.9116 18 12Z"></path></symbol><symbol viewBox="0 0 24 24" id="volume-mute-line"><path d="M10 7.22056L6.60282 10.0001H3V14.0001H6.60282L10 16.7796V7.22056ZM5.88889 16.0001H2C1.44772 16.0001 1 15.5524 1 15.0001V9.00007C1 8.44778 1.44772 8.00007 2 8.00007H5.88889L11.1834 3.66821C11.3971 3.49335 11.7121 3.52485 11.887 3.73857C11.9601 3.8279 12 3.93977 12 4.05519V19.9449C12 20.2211 11.7761 20.4449 11.5 20.4449C11.3846 20.4449 11.2727 20.405 11.1834 20.3319L5.88889 16.0001ZM20.4142 12.0001L23.9497 15.5356L22.5355 16.9498L19 13.4143L15.4645 16.9498L14.0503 15.5356L17.5858 12.0001L14.0503 8.46454L15.4645 7.05032L19 10.5859L22.5355 7.05032L23.9497 8.46454L20.4142 12.0001Z"></path></symbol><symbol viewBox="0 0 24 24" id="pause-line"><path d="M6 5H8V19H6V5ZM16 5H18V19H16V5Z"></path></symbol><symbol viewBox="0 0 24 24" id="speed-fill"><path d="M12 13.3332L2.77735 19.4816C2.54759 19.6348 2.23715 19.5727 2.08397 19.3429C2.02922 19.2608 2 19.1643 2 19.0656V4.93408C2 4.65794 2.22386 4.43408 2.5 4.43408C2.59871 4.43408 2.69522 4.4633 2.77735 4.51806L12 10.6665V4.93408C12 4.65794 12.2239 4.43408 12.5 4.43408C12.5987 4.43408 12.6952 4.4633 12.7774 4.51806L23.376 11.5838C23.6057 11.737 23.6678 12.0474 23.5146 12.2772C23.478 12.3321 23.4309 12.3792 23.376 12.4158L12.7774 19.4816C12.5476 19.6348 12.2372 19.5727 12.084 19.3429C12.0292 19.2608 12 19.1643 12 19.0656V13.3332Z"></path></symbol><symbol viewBox="0 0 24 24" id="rewind-fill"><path d="M12.001 10.6665L21.2237 4.51811C21.4534 4.36493 21.7639 4.42702 21.917 4.65679C21.9718 4.73892 22.001 4.83542 22.001 4.93414V19.0656C22.001 19.3418 21.7772 19.5656 21.501 19.5656C21.4023 19.5656 21.3058 19.5364 21.2237 19.4816L12.001 13.3332V19.0656C12.001 19.3418 11.7772 19.5656 11.501 19.5656C11.4023 19.5656 11.3058 19.5364 11.2237 19.4816L0.625047 12.4159C0.395282 12.2627 0.333196 11.9523 0.486372 11.7225C0.522989 11.6676 0.570121 11.6205 0.625047 11.5839L11.2237 4.51811C11.4534 4.36493 11.7639 4.42702 11.917 4.65679C11.9718 4.73892 12.001 4.83542 12.001 4.93414V10.6665Z"></path></symbol><symbol viewBox="0 0 24 24" id="speed-mini-fill"><path d="M4.78834 17.4434C4.70398 17.503 4.60326 17.535 4.5 17.535C4.22386 17.535 4 17.3111 4 17.035V6.96488C4 6.86163 4.03197 6.7609 4.09152 6.67654C4.25076 6.45094 4.56274 6.39715 4.78834 6.5564L11.9213 11.5914C11.9679 11.6243 12.0086 11.665 12.0415 11.7116C12.2007 11.9372 12.1469 12.2492 11.9213 12.4084L4.78834 17.4434ZM13 6.96488C13 6.86163 13.032 6.7609 13.0915 6.67654C13.2508 6.45094 13.5627 6.39715 13.7883 6.5564L20.9213 11.5914C20.9679 11.6243 21.0086 11.665 21.0415 11.7116C21.2007 11.9372 21.1469 12.2492 20.9213 12.4084L13.7883 17.4434C13.704 17.503 13.6033 17.535 13.5 17.535C13.2239 17.535 13 17.3111 13 17.035V6.96488Z"></path></symbol><symbol viewBox="0 0 24 24" id="rewind-mini-fill"><path d="M11.0002 17.0349C11.0002 17.1382 10.9682 17.2389 10.9087 17.3233C10.7494 17.5489 10.4375 17.6027 10.2119 17.4434L3.07889 12.4084C3.03228 12.3755 2.99164 12.3348 2.95874 12.2882C2.7995 12.0626 2.85329 11.7506 3.07889 11.5914L10.2119 6.55636C10.2962 6.49681 10.3969 6.46484 10.5002 6.46484C10.7763 6.46484 11.0002 6.6887 11.0002 6.96484V17.0349ZM12.0789 12.4084C12.0323 12.3755 11.9916 12.3348 11.9587 12.2882C11.7995 12.0626 11.8533 11.7506 12.0789 11.5914L19.2119 6.55636C19.2962 6.49681 19.3969 6.46484 19.5002 6.46484C19.7763 6.46484 20.0002 6.6887 20.0002 6.96484V17.0349C20.0002 17.1382 19.9682 17.2389 19.9087 17.3233C19.7494 17.5489 19.4375 17.6027 19.2119 17.4434L12.0789 12.4084Z"></path></symbol><symbol viewBox="0 0 24 24" id="stop-mini-fill"><path d="M6 7V17C6 17.5523 6.44772 18 7 18H17C17.5523 18 18 17.5523 18 17V7C18 6.44772 17.5523 6 17 6H7C6.44772 6 6 6.44772 6 7Z"></path></symbol><symbol viewBox="0 0 24 24" id="skip-forward-mini-fill"><path d="M7.78834 17.4435C7.70398 17.5031 7.60326 17.535 7.5 17.535C7.22386 17.535 7 17.3112 7 17.035V6.96496C7 6.8617 7.03197 6.76098 7.09152 6.67662C7.25076 6.45102 7.56274 6.39723 7.78834 6.55648L14.9213 11.5915C14.9679 11.6244 15.0086 11.665 15.0415 11.7117C15.2007 11.9373 15.1469 12.2492 14.9213 12.4085L7.78834 17.4435ZM16 7C16 6.44772 16.4477 6 17 6C17.5523 6 18 6.44772 18 7V17C18 17.5523 17.5523 18 17 18C16.4477 18 16 17.5523 16 17V7Z"></path></symbol><symbol viewBox="0 0 24 24" id="skip-back-mini-fill"><path d="M7 6C7.55228 6 8 6.44772 8 7V17C8 17.5523 7.55228 18 7 18C6.44772 18 6 17.5523 6 17V7C6 6.44772 6.44772 6 7 6ZM9.07869 12.4085C9.03208 12.3756 8.99144 12.3349 8.95854 12.2883C8.7993 12.0627 8.85309 11.7508 9.07869 11.5915L16.2117 6.55648C16.296 6.49693 16.3967 6.46496 16.5 6.46496C16.7761 6.46496 17 6.68882 17 6.96496V17.035C17 17.1383 16.968 17.239 16.9085 17.3234C16.7492 17.549 16.4373 17.6028 16.2117 17.4435L9.07869 12.4085Z"></path></symbol><symbol viewBox="0 0 24 24" id="pause-mini-fill"><path d="M15 7C15 6.44772 15.4477 6 16 6C16.5523 6 17 6.44772 17 7V17C17 17.5523 16.5523 18 16 18C15.4477 18 15 17.5523 15 17V7ZM7 7C7 6.44772 7.44772 6 8 6C8.55228 6 9 6.44772 9 7V17C9 17.5523 8.55228 18 8 18C7.44772 18 7 17.5523 7 17V7Z"></path></symbol><symbol viewBox="0 0 24 24" id="stop-fill"><path d="M6 5H18C18.5523 5 19 5.44772 19 6V18C19 18.5523 18.5523 19 18 19H6C5.44772 19 5 18.5523 5 18V6C5 5.44772 5.44772 5 6 5Z"></path></symbol><symbol viewBox="0 0 24 24" id="pause-fill"><path d="M6 5H8V19H6V5ZM16 5H18V19H16V5Z"></path></symbol><symbol viewBox="0 0 24 24" id="skip-back-fill"><path d="M8 11.3333L18.2227 4.51823C18.4524 4.36506 18.7628 4.42714 18.916 4.65691C18.9708 4.73904 19 4.83555 19 4.93426V19.0657C19 19.3419 18.7761 19.5657 18.5 19.5657C18.4013 19.5657 18.3048 19.5365 18.2227 19.4818L8 12.6667V19C8 19.5523 7.55228 20 7 20C6.44772 20 6 19.5523 6 19V5C6 4.44772 6.44772 4 7 4C7.55228 4 8 4.44772 8 5V11.3333Z"></path></symbol><symbol viewBox="0 0 24 24" id="skip-forward-fill"><path d="M16 12.6667L5.77735 19.4818C5.54759 19.6349 5.23715 19.5729 5.08397 19.3431C5.02922 19.261 5 19.1645 5 19.0657V4.93426C5 4.65812 5.22386 4.43426 5.5 4.43426C5.59871 4.43426 5.69522 4.46348 5.77735 4.51823L16 11.3333V5C16 4.44772 16.4477 4 17 4C17.5523 4 18 4.44772 18 5V19C18 19.5523 17.5523 20 17 20C16.4477 20 16 19.5523 16 19V12.6667Z"></path></symbol><symbol viewBox="0 0 24 24" id="play-mini-fill"><path d="M7.75194 5.43872L18.2596 11.5682C18.4981 11.7073 18.5787 12.0135 18.4396 12.252C18.3961 12.3265 18.3341 12.3885 18.2596 12.432L7.75194 18.5615C7.51341 18.7006 7.20725 18.62 7.06811 18.3815C7.0235 18.305 7 18.2181 7 18.1296V5.87061C7 5.59446 7.22386 5.37061 7.5 5.37061C7.58853 5.37061 7.67547 5.39411 7.75194 5.43872Z"></path></symbol><symbol viewBox="0 0 24 24" id="repeat-line"><path d="M6 4H21C21.5523 4 22 4.44772 22 5V12H20V6H6V9L1 5L6 1V4ZM18 20H3C2.44772 20 2 19.5523 2 19V12H4V18H18V15L23 19L18 23V20Z"></path></symbol><symbol viewBox="0 0 24 24" id="play-list-add-line"><path d="M2 18H12V20H2V18ZM2 11H22V13H2V11ZM2 4H22V6H2V4ZM18 18V15H20V18H23V20H20V23H18V20H15V18H18Z"></path></symbol><symbol viewBox="0 0 24 24" id="volume-down-line"><path d="M13 7.22056L9.60282 10.0001H6V14.0001H9.60282L13 16.7796V7.22056ZM8.88889 16.0001H5C4.44772 16.0001 4 15.5524 4 15.0001V9.00007C4 8.44778 4.44772 8.00007 5 8.00007H8.88889L14.1834 3.66821C14.3971 3.49335 14.7121 3.52485 14.887 3.73857C14.9601 3.8279 15 3.93977 15 4.05519V19.9449C15 20.2211 14.7761 20.4449 14.5 20.4449C14.3846 20.4449 14.2727 20.405 14.1834 20.3319L8.88889 16.0001ZM18.8631 16.5911L17.4411 15.1691C18.3892 14.4376 19 13.2902 19 12.0001C19 10.5697 18.2493 9.31476 17.1203 8.60766L18.5589 7.16906C20.0396 8.26166 21 10.0187 21 12.0001C21 13.8422 20.1698 15.4905 18.8631 16.5911Z"></path></symbol><symbol viewBox="0 0 24 24" id="music-line"><path d="M12 13.5351V3H20V5H14V17C14 19.2091 12.2091 21 10 21C7.79086 21 6 19.2091 6 17C6 14.7909 7.79086 13 10 13C10.7286 13 11.4117 13.1948 12 13.5351ZM10 19C11.1046 19 12 18.1046 12 17C12 15.8954 11.1046 15 10 15C8.89543 15 8 15.8954 8 17C8 18.1046 8.89543 19 10 19Z"></path></symbol><symbol viewBox="0 0 24 24" id="music-fill"><path d="M12 13.5351V3H20V6H14V17C14 19.2091 12.2091 21 10 21C7.79086 21 6 19.2091 6 17C6 14.7909 7.79086 13 10 13C10.7286 13 11.4117 13.1948 12 13.5351Z"></path></symbol><symbol viewBox="0 0 24 24" id="replay-10-fill"><path d="M12 2C17.5228 2 22 6.47715 22 12 22 17.5228 17.5228 22 12 22 6.47715 22 2 17.5228 2 12H4C4 16.4183 7.58172 20 12 20 16.4183 20 20 16.4183 20 12 20 7.58172 16.4183 4 12 4 9.53614 4 7.33243 5.11383 5.86492 6.86543L8 9H2V3L4.44656 5.44648C6.28002 3.33509 8.9841 2 12 2ZM14.5 8.25C13.1193 8.25 12 9.36929 12 10.75V13.25C12 14.6307 13.1193 15.75 14.5 15.75 15.8807 15.75 17 14.6307 17 13.25V10.75C17 9.36929 15.8807 8.25 14.5 8.25ZM15.5 10.75V13.25C15.5 13.8023 15.0523 14.25 14.5 14.25 13.9477 14.25 13.5 13.8023 13.5 13.25V10.75C13.5 10.1977 13.9477 9.75 14.5 9.75 15.0523 9.75 15.5 10.1977 15.5 10.75ZM10 8.5H8.5V15.5H10V8.5Z"></path></symbol><symbol viewBox="0 0 24 24" id="forward-10-fill"><path d="M12 2C6.47715 2 2 6.47715 2 12 2 17.5228 6.47715 22 12 22 17.5228 22 22 17.5228 22 12H20C20 16.4183 16.4183 20 12 20 7.58172 20 4 16.4183 4 12 4 7.58172 7.58172 4 12 4 14.4639 4 16.6676 5.11383 18.1351 6.86543L16.1384 8.86165C15.6996 8.48063 15.1267 8.25 14.5 8.25 13.1193 8.25 12 9.36929 12 10.75V13.25C12 14.6307 13.1193 15.75 14.5 15.75 15.8807 15.75 17 14.6307 17 13.25V10.75C17 10.0686 16.7274 9.45094 16.2854 9H22V3L19.5534 5.44648C17.72 3.33509 15.0159 2 12 2ZM15.5 10.75V13.25C15.5 13.8023 15.0523 14.25 14.5 14.25 13.9477 14.25 13.5 13.8023 13.5 13.25V10.75C13.5 10.1977 13.9477 9.75 14.5 9.75 15.0523 9.75 15.5 10.1977 15.5 10.75ZM10 8.5H8.5V15.5H10V8.5Z"></path></symbol><symbol viewBox="0 0 24 24" id="menu-line"><path d="M3 4H21V6H3V4ZM3 11H21V13H3V11ZM3 18H21V20H3V18Z"></path></symbol><symbol viewBox="0 0 24 24" id="music-2-line"><path d="M20 3V17C20 19.2091 18.2091 21 16 21C13.7909 21 12 19.2091 12 17C12 14.7909 13.7909 13 16 13C16.7286 13 17.4117 13.1948 18 13.5351V5H9V17C9 19.2091 7.20914 21 5 21C2.79086 21 1 19.2091 1 17C1 14.7909 2.79086 13 5 13C5.72857 13 6.41165 13.1948 7 13.5351V3H20ZM5 19C6.10457 19 7 18.1046 7 17C7 15.8954 6.10457 15 5 15C3.89543 15 3 15.8954 3 17C3 18.1046 3.89543 19 5 19ZM16 19C17.1046 19 18 18.1046 18 17C18 15.8954 17.1046 15 16 15C14.8954 15 14 15.8954 14 17C14 18.1046 14.8954 19 16 19Z"></path></symbol><symbol viewBox="0 0 24 24" id="music-2-fill"><path d="M20 3V17C20 19.2091 18.2091 21 16 21C13.7909 21 12 19.2091 12 17C12 14.7909 13.7909 13 16 13C16.7286 13 17.4117 13.1948 18 13.5351V6H9V17C9 19.2091 7.20914 21 5 21C2.79086 21 1 19.2091 1 17C1 14.7909 2.79086 13 5 13C5.72857 13 6.41165 13.1948 7 13.5351V3H20Z"></path></symbol><symbol viewBox="0 0 24 24" id="star-line"><path d="M12.0006 18.26L4.94715 22.2082L6.52248 14.2799L0.587891 8.7918L8.61493 7.84006L12.0006 0.5L15.3862 7.84006L23.4132 8.7918L17.4787 14.2799L19.054 22.2082L12.0006 18.26ZM12.0006 15.968L16.2473 18.3451L15.2988 13.5717L18.8719 10.2674L14.039 9.69434L12.0006 5.27502L9.96214 9.69434L5.12921 10.2674L8.70231 13.5717L7.75383 18.3451L12.0006 15.968Z"></path></symbol><symbol viewBox="0 0 24 24" id="star-fill"><path d="M12.0006 18.26L4.94715 22.2082L6.52248 14.2799L0.587891 8.7918L8.61493 7.84006L12.0006 0.5L15.3862 7.84006L23.4132 8.7918L17.4787 14.2799L19.054 22.2082L12.0006 18.26Z"></path></symbol></svg>